PathFileType	4	(X/Y/Z)	C:\Users\Biomechanik\SynologyDrive\AlexP\Athlete_03\Athlete_3_25_03_31\Squat_bar_02\marker_experimental.trc
DataRate	CameraRate	NumFrames	NumMarkers	Units	OrigDataRate	OrigDataStartFrame	OrigNumFrames
200.000000	200.000000	4	55	mm	200.000000	456	522
Frame#	Time	BL			BR			GLAB			RFHD			LFHD			C7			T6			SPINMOL			SPINM2			SPINM3			T12			BELTOL			BELT2			BELT3			SACROL			SACR2			SACR3			LTHOL			LTH2			LTH3			LSHAOL			LSHA2			LSHA3			LHEE			LTOE			LM5			RTHOL			RTH2			RTH3			RSHAOL			RSHA2			RSHA3			RHEE			RTOE			RM5			STRN			XIPH			LACR			LUAOL			LUA2			LUA3			LLAOL			LLA2			LLA3			LWRR			LWRU			RACR			RUAOL			RUA2			RUA3			RLAOL			RLA2			RLA3			RWRR			RWRU			
		X1	Y1	Z1	X2	Y2	Z2	X3	Y3	Z3	X4	Y4	Z4	X5	Y5	Z5	X6	Y6	Z6	X7	Y7	Z7	X8	Y8	Z8	X9	Y9	Z9	X10	Y10	Z10	X11	Y11	Z11	X12	Y12	Z12	X13	Y13	Z13	X14	Y14	Z14	X15	Y15	Z15	X16	Y16	Z16	X17	Y17	Z17	X18	Y18	Z18	X19	Y19	Z19	X20	Y20	Z20	X21	Y21	Z21	X22	Y22	Z22	X23	Y23	Z23	X24	Y24	Z24	X25	Y25	Z25	X26	Y26	Z26	X27	Y27	Z27	X28	Y28	Z28	X29	Y29	Z29	X30	Y30	Z30	X31	Y31	Z31	X32	Y32	Z32	X33	Y33	Z33	X34	Y34	Z34	X35	Y35	Z35	X36	Y36	Z36	X37	Y37	Z37	X38	Y38	Z38	X39	Y39	Z39	X40	Y40	Z40	X41	Y41	Z41	X42	Y42	Z42	X43	Y43	Z43	X44	Y44	Z44	X45	Y45	Z45	X46	Y46	Z46	X47	Y47	Z47	X48	Y48	Z48	X49	Y49	Z49	X50	Y50	Z50	X51	Y51	Z51	X52	Y52	Z52	X53	Y53	Z53	X54	Y54	Z54	X55	Y55	Z55	

457	2.28	232.1167449951172	1342.980102539063	-2225.357177734375	210.8162689208984	1378.288818359375	-204.777114868164	489.7954711914062	1565.653930664062	-1177.935546875	436.0592346191406	1588.89306640625	-1116.495239257812	447.0797119140625	1585.691040039062	-1252.056274414062	260.5587463378906	1427.808227539062	-1187.115844726562	163.0689849853516	1278.517211914062	-1197.001586914062	146.3121490478516	1247.107788085938	-1217.551635742188	137.0462951660156	1238.695068359375	-1168.913940429688	129.0033874511719	1184.455322265625	-1205.538208007812	120.1404113769531	1120.558227539062	-1207.323364257812	90.57376861572266	1099.183959960938	-1225.360961914062	88.45059204101562	1095.534545898438	-1175.324096679688	68.34077453613281	1039.797607421875	-1205.524291992188	42.42475128173828	957.7779541015626	-1231.737548828125	40.64690780639648	954.7236328125001	-1180.286010742188	27.65342140197754	896.8149414062501	-1209.734375	120.8392486572266	679.1882934570314	-1420.244384765625	89.52523803710938	612.4666137695314	-1389.80224609375	128.7719879150391	617.6250610351564	-1420.622802734375	126.6881256103516	331.9938354492189	-1498.898193359375	91.35810852050781	261.8922424316407	-1485.779418945312	135.872802734375	271.2723388671876	-1508.251708984375	111.1250915527344	70.13601684570321	-1465.70361328125	315.0848999023438	50.1067657470704	-1539.217041015625	239.1250152587891	26.20618629455576	-1619.606201171875	92.67623138427734	686.9917602539064	-998.423828125	143.5523529052734	644.5584716796876	-953.4813232421875	108.5253982543945	628.8628540039064	-985.27978515625	91.10813903808594	347.6412353515626	-919.1746826171875	123.4737701416016	282.3429870605469	-889.7244873046875	85.00337219238281	285.5004577636719	-920.9721069335938	89.18302917480469	63.57800292968756	-965.8301391601562	280.1405639648438	47.44264984130864	-870.0416259765625	191.2793273925781	37.93491744995122	-798.734375	402.4516296386719	1290.843627929688	-1189.574462890625	390.2693176269531	1145.971923828125	-1186.776611328125	312.8397521972656	1382.441284179688	-1359.592895507812	205.5512084960938	1262.707885742188	-1449.648315429688	159.1925506591797	1217.771118164062	-1437.339721679688	189.1269226074219	1205.881958007812	-1477.006469726562	168.2661895751953	1134.820556640625	-1545.833251953125	241.1695251464844	1134.944458007812	-1577.273559570312	209.5667572021484	1173.543090820312	-1569.7158203125	261.7059020996094	1256.815185546875	-1606.930908203125	269.1174926757812	1286.685913085938	-1534.418090820312	318.8846435546875	1377.420166015625	-1022.359252929687	211.890869140625	1261.537109375	-942.6679077148436	185.8576049804688	1208.355224609375	-914.1026611328124	166.5731353759766	1218.011474609375	-961.5285034179686	184.4528503417969	1137.488891601562	-830.2729492187499	182.3917083740234	1216.769287109375	-819.1343994140624	220.4164581298828	1184.019653320312	-809.4307861328124	248.8330078125	1271.9619140625	-790.7853393554686	268.8506164550781	1304.750610351562	-861.1905517578124	
458	2.285	232.0038757324219	1342.803955078125	-2225.453857421875	210.6383361816406	1378.02685546875	-204.872344970703	489.6431579589844	1565.845336914062	-1177.978149414062	435.8920288085938	1589.027099609375	-1116.520385742188	446.8896484375	1585.84814453125	-1252.076293945312	260.493896484375	1427.709106445312	-1187.160766601562	163.0608367919922	1278.582397460938	-1197.06640625	146.270751953125	1247.190307617188	-1217.61767578125	137.0234527587891	1238.7568359375	-1168.978637695312	128.9897308349609	1184.523559570312	-1205.626342773438	120.2532272338867	1120.485717773438	-1207.365478515625	90.74662017822266	1099.0615234375	-1225.369384765625	88.62537384033203	1095.415405273438	-1175.339233398438	68.58225250244141	1039.648559570312	-1205.53857421875	42.79050827026367	957.7398681640626	-1231.712036132812	41.01180267333984	954.6748657226564	-1180.26171875	28.07998275756836	896.7587280273439	-1209.719970703125	120.9617919921875	679.2605590820314	-1420.118530273438	89.53160858154297	612.5924072265626	-1389.677001953125	128.7993927001953	617.6834716796876	-1420.484008789062	126.5444107055664	331.9680480957032	-1498.776000976562	91.24690246582031	261.8421325683595	-1485.703491210938	135.7654266357422	271.2545471191407	-1508.153198242188	111.1286849975586	70.13002777099618	-1465.7099609375	315.0850830078125	50.11592483520517	-1539.224731445312	239.118896484375	26.19254493713389	-1619.623168945312	92.73545074462891	687.1444702148439	-998.5994873046875	143.5042114257812	644.5684204101564	-953.6749267578125	108.4536056518555	628.9691162109376	-985.487060546875	90.80991363525391	347.6058654785157	-919.392578125	123.2345504760742	282.3598022460938	-889.8917236328125	84.75392913818359	285.4613037109376	-921.1362915039062	89.18098449707031	63.58070755004888	-965.8161010742188	280.1275939941406	47.45291519165044	-870.022216796875	191.2656402587891	37.91483306884771	-798.7061767578125	402.54296875	1290.883422851562	-1189.622680664062	390.3895874023438	1146.03564453125	-1186.846069335938	312.7665710449219	1382.4970703125	-1359.636596679688	205.5730285644531	1262.631591796875	-1449.673095703125	159.2728118896484	1217.68505859375	-1437.313232421875	189.2259521484375	1205.774780273438	-1476.953247070312	168.3480377197266	1134.675903320312	-1545.7431640625	241.2397155761719	1134.831909179688	-1577.20654296875	209.6074829101562	1173.411987304688	-1569.668090820312	261.6755981445312	1256.699951171875	-1606.955810546875	269.0644836425781	1286.629272460938	-1534.468139648438	318.7836608886719	1377.39306640625	-1022.465698242187	211.9241027832031	1261.438232421875	-942.7886962890624	185.7970886230469	1208.247436523438	-914.2350463867186	166.5805511474609	1217.950073242188	-961.6766967773436	184.3938903808594	1137.335815429688	-830.4857788085936	182.3120880126953	1216.601684570312	-819.2888183593749	220.3536376953125	1183.866821289062	-809.6083984374999	248.7519989013672	1271.809326171875	-790.9021606445311	268.7858581542969	1304.639770507812	-861.2863769531249	
459	2.29	231.898681640625	1342.6298828125	-2225.550048828125	210.4664459228516	1377.775390625	-204.9674530029296	489.5054931640625	1566.024291992188	-1178.026489257812	435.7429504394531	1589.150634765625	-1116.550170898438	446.7135314941406	1585.998046875	-1252.1005859375	260.436279296875	1427.614379882812	-1187.210327148438	163.0570373535156	1278.648803710938	-1197.132690429688	146.2403411865234	1247.271240234375	-1217.68408203125	137.0076141357422	1238.819946289062	-1169.04541015625	128.9813232421875	1184.593017578125	-1205.713500976562	120.363166809082	1120.420288085938	-1207.40478515625	90.91632843017578	1098.949462890625	-1225.376342773438	88.80134582519531	1095.305297851562	-1175.347412109375	68.81675720214844	1039.510986328125	-1205.5517578125	43.15363693237305	957.7252197265626	-1231.682006835938	41.37271118164062	954.6510620117189	-1180.232421875	28.49331474304199	896.7290039062501	-1209.699829101562	121.0790328979492	679.3298339843751	-1419.999389648438	89.55105590820312	612.7122192382814	-1389.552978515625	128.8356781005859	617.7388916015626	-1420.349731445312	126.4106826782227	331.9441528320314	-1498.65576171875	91.14495086669922	261.7952880859376	-1485.623779296875	135.664306640625	271.2385864257814	-1508.056640625	111.1327972412109	70.12329864501962	-1465.714111328125	315.0867004394531	50.12891387939462	-1539.224365234375	239.1141967773438	26.18050384521494	-1619.638061523438	92.79034423828125	687.2944946289064	-998.7792358398438	143.4483642578125	644.5776977539064	-953.8696899414062	108.3796081542969	629.0731201171876	-985.6989135742188	90.51243591308594	347.5734558105469	-919.6093139648438	122.9924011230469	282.3789978027344	-890.0559692382812	84.50421905517578	285.4252624511719	-921.29931640625	89.17652893066406	63.58486938476568	-965.8024291992188	280.1153259277344	47.46273040771489	-870.004150390625	191.2530059814453	37.89572525024419	-798.6795654296875	402.6330261230469	1290.921875	-1189.67626953125	390.5086669921875	1146.098754882812	-1186.917846679688	312.6932373046875	1382.545532226562	-1359.686157226562	205.5921325683594	1262.550537109375	-1449.70849609375	159.3499908447266	1217.59423828125	-1437.298461914062	189.3203277587891	1205.663208007812	-1476.914306640625	168.4266967773438	1134.530029296875	-1545.666748046875	241.3114166259766	1134.717529296875	-1577.151733398438	209.6477966308594	1173.279052734375	-1569.630493164062	261.6487121582031	1256.583862304688	-1606.985229492188	269.016845703125	1286.566528320312	-1534.520751953125	318.6864929199219	1377.365356445312	-1022.572814941406	211.9598846435547	1261.338134765625	-942.9066772460936	185.7442016601562	1208.134399414062	-914.3631591796874	166.5946655273438	1217.882690429688	-961.8214721679686	184.3477172851562	1137.18017578125	-830.6931152343749	182.2390289306641	1216.430053710938	-819.4401855468749	220.3024597167969	1183.71484375	-809.7827758789061	248.6759338378906	1271.659790039062	-791.0184936523436	268.7213745117188	1304.529663085938	-861.3821411132811	
460	2.295	231.8017730712891	1342.462768554688	-2225.6455078125	210.3011016845703	1377.53955078125	-205.0623016357421	489.38134765625	1566.1923828125	-1178.080444335938	435.6104431152344	1589.265502929688	-1116.5849609375	446.5505676269531	1586.141967773438	-1252.129638671875	260.3846130371094	1427.52783203125	-1187.264404296875	163.0558319091797	1278.717407226562	-1197.200073242188	146.2185516357422	1247.3505859375	-1217.75048828125	136.9970550537109	1238.884399414062	-1169.114379882812	128.9774322509766	1184.663330078125	-1205.798706054688	120.4694976806641	1120.361694335938	-1207.441284179688	91.08300018310547	1098.845947265625	-1225.382446289062	88.97785949707031	1095.202758789062	-1175.349487304688	69.04551696777344	1039.382934570312	-1205.564086914062	43.51552200317383	957.7313232421876	-1231.6494140625	41.73065948486328	954.6500854492189	-1180.199951171875	28.89467811584473	896.7231445312501	-1209.675659179688	121.1884307861328	679.3978271484376	-1419.886474609375	89.58187866210938	612.8281250000001	-1389.42724609375	128.8782958984375	617.7919921875001	-1420.218383789062	126.2836074829102	331.9213867187501	-1498.536376953125	91.04905700683594	261.7507324218751	-1485.540161132812	135.5665130615234	271.2239685058595	-1507.961181640625	111.1370315551758	70.1156539916993	-1465.716674804688	315.0894775390625	50.14551544189462	-1539.216552734375	239.1106262207031	26.16981506347666	-1619.651123046875	92.84154510498047	687.4425048828126	-998.962890625	143.3858184814453	644.5863037109376	-954.0669555664062	108.3036041259766	629.1760253906251	-985.916259765625	90.21500396728516	347.5436096191407	-919.8253173828125	122.7480316162109	282.4002990722657	-890.218505859375	84.25418853759766	285.3917541503907	-921.4613037109375	89.16988372802734	63.59037780761724	-965.7892456054688	280.1039428710938	47.47206115722661	-869.9873046875	191.2414703369141	37.87772369384771	-798.6546630859375	402.7203674316406	1290.960815429688	-1189.734619140625	390.6250610351562	1146.1630859375	-1186.991455078125	312.620361328125	1382.58984375	-1359.740966796875	205.6099548339844	1262.469482421875	-1449.753784179688	159.4235229492188	1217.503051757812	-1437.296508789062	189.4092254638672	1205.552490234375	-1476.890747070312	168.5030822753906	1134.388305664062	-1545.605834960938	241.3851470947266	1134.607177734375	-1577.110229492188	209.6884918212891	1173.150024414062	-1569.604736328125	261.6261901855469	1256.472290039062	-1607.02001953125	268.9756164550781	1286.502685546875	-1534.576049804688	318.5939636230469	1377.341918945312	-1022.678833007812	211.9981231689453	1261.2412109375	-943.0210571289061	185.7017059326172	1208.021118164062	-914.4863281249999	166.6159973144531	1217.812744140625	-961.9611206054686	184.3165283203125	1137.026977539062	-830.8923950195311	182.1744384765625	1216.259033203125	-819.5870971679686	220.2647552490234	1183.56884765625	-809.9520263671874	248.6060943603516	1271.518798828125	-791.1336669921874	268.6582946777344	1304.425659179688	-861.4777221679686	
